<svg width="36" height="29" viewBox="0 0 36 29" fill="none" xmlns="http://www.w3.org/2000/svg" viewBox="0 0 28 29"><path d="M20.323 10.988v2.74a.98.98 0 0 1-.142.527.961.961 0 0 1-.4.366 14.701 14.701 0 0 1-6.007 1.48 14.698 14.698 0 0 1-6.005-1.473.964.964 0 0 1-.402-.368.985.985 0 0 1-.142-.532v-2.74a.783.783 0 0 1 .354-.626.754.754 0 0 1 .707-.057 14.338 14.338 0 0 0 5.488 1.246 14.359 14.359 0 0 0 5.49-1.24.751.751 0 0 1 .956.323.782.782 0 0 1 .103.354Z" fill="#06F"/><path d="M27.403 17.407a6.646 6.646 0 0 1-2.112 4.332 6.452 6.452 0 0 1-4.451 1.713h-3.62l-6.893 4.55v-4.55l6.894-4.55h3.626a2.008 2.008 0 0 0 1.402-.503c.387-.342.633-.82.687-1.338a80.87 80.87 0 0 0-.052-10.501 1.962 1.962 0 0 0-.579-1.227 1.906 1.906 0 0 0-1.227-.545 117.83 117.83 0 0 0-7.304-.238c-2.478 0-4.953.084-7.304.252-.46.026-.896.22-1.228.545a1.96 1.96 0 0 0-.578 1.227 80.714 80.714 0 0 0-.052 10.5c.057.516.304.991.692 1.33.387.34.886.517 1.397.498h3.626v4.55h-3.62a6.452 6.452 0 0 1-4.442-1.72 6.647 6.647 0 0 1-2.106-4.328A85.44 85.44 0 0 1 .21 6.203 6.55 6.55 0 0 1 2.1 2.12 6.364 6.364 0 0 1 6.15.266C8.604.088 11.189 0 13.774 0s5.17.088 7.624.266a6.363 6.363 0 0 1 4.063 1.855 6.55 6.55 0 0 1 1.89 4.096c.262 3.724.28 7.463.052 11.19Z" fill="#06F"/></svg>